<svg width="48" height="48" viewBox="0 0 48 48" fill="none" xmlns="http://www.w3.org/2000/svg">
<path d="M23.6951 24.3049L24.0925 24.4417C30.6104 26.6855 38.4602 24.5398 44 19M23.6951 24.3049L22.5804 23.9211C16.497 21.8268 9.1705 23.8295 4 29M23.6951 24.3049L23.5583 23.9075C21.3145 17.3896 23.4602 9.53982 29 4M23.6951 24.3049L24.0789 25.4196C26.1732 31.503 24.1705 38.8295 19 44" stroke="#00BBFF" stroke-width="2" stroke-linecap="round"/>
<path d="M13.5312 23.6865L23.6882 33.8435" stroke="#00BBFF" stroke-width="2" stroke-linecap="round"/>
<path d="M23.6875 13.5293L33.8444 23.6862" stroke="#00BBFF" stroke-width="2" stroke-linecap="round"/>
<path d="M8 26L15 33" stroke="#00BBFF" stroke-width="2" stroke-linecap="round"/>
<path d="M39.5547 21.7812L32.5547 14.7812" stroke="#00BBFF" stroke-width="2" stroke-linecap="round"/>
<path d="M18.6094 36.3828L21.7834 39.5569" stroke="#00BBFF" stroke-width="2" stroke-linecap="round"/>
<path d="M29.1719 11.1738L25.9978 7.99978" stroke="#00BBFF" stroke-width="2" stroke-linecap="round"/>
</svg>
