<svg width="96" height="96" viewBox="0 0 96 96" fill="none" xmlns="http://www.w3.org/2000/svg">
<rect width="96" height="96" rx="15" fill="#070514"/>
<path d="M38 44C38 41.1716 38 39.7574 38.8787 38.8787C39.7574 38 41.1716 38 44 38H52C54.8284 38 56.2426 38 57.1213 38.8787C58 39.7574 58 41.1716 58 44V52C58 54.8284 58 56.2426 57.1213 57.1213C56.2426 58 54.8284 58 52 58H44C41.1716 58 39.7574 58 38.8787 57.1213C38 56.2426 38 54.8284 38 52V44Z" stroke="#00BBFF" stroke-width="2"/>
<path d="M32 48C32 40.4575 32 36.6863 34.3431 34.3431C36.6863 32 40.4575 32 48 32C55.5425 32 59.3137 32 61.6569 34.3431C64 36.6863 64 40.4575 64 48C64 55.5425 64 59.3137 61.6569 61.6569C59.3137 64 55.5425 64 48 64C40.4575 64 36.6863 64 34.3431 61.6569C32 59.3137 32 55.5425 32 48Z" stroke="#00BBFF" stroke-width="2"/>
<path d="M32 48H28" stroke="#00BBFF" stroke-width="2" stroke-linecap="round"/>
<path d="M68 48H64" stroke="#00BBFF" stroke-width="2" stroke-linecap="round"/>
<path d="M32 42H28" stroke="#00BBFF" stroke-width="1.5" stroke-linecap="round"/>
<path d="M68 42H64" stroke="#00BBFF" stroke-width="1.5" stroke-linecap="round"/>
<path d="M32 54H28" stroke="#00BBFF" stroke-width="1.5" stroke-linecap="round"/>
<path d="M68 54H64" stroke="#00BBFF" stroke-width="1.5" stroke-linecap="round"/>
<path d="M48 64L48 68" stroke="#00BBFF" stroke-width="1.5" stroke-linecap="round"/>
<path d="M48 28L48 32" stroke="#00BBFF" stroke-width="1.5" stroke-linecap="round"/>
<path d="M42 64L42 68" stroke="#00BBFF" stroke-width="1.5" stroke-linecap="round"/>
<path d="M42 28L42 32" stroke="#00BBFF" stroke-width="1.5" stroke-linecap="round"/>
<path d="M54 64L54 68" stroke="#00BBFF" stroke-width="1.5" stroke-linecap="round"/>
<path d="M54 28L54 32" stroke="#00BBFF" stroke-width="1.5" stroke-linecap="round"/>
</svg>
