<svg width="96" height="96" viewBox="0 0 96 96" fill="none" xmlns="http://www.w3.org/2000/svg">
<rect width="96" height="96" rx="15" fill="#070514"/>
<circle cx="48" cy="36" r="8" stroke="#5F7FFF" stroke-width="2"/>
<path d="M60 42C63.3137 42 66 39.7614 66 37C66 34.2386 63.3137 32 60 32" stroke="#5F7FFF" stroke-width="2" stroke-linecap="round"/>
<path d="M36 42C32.6863 42 30 39.7614 30 37C30 34.2386 32.6863 32 36 32" stroke="#5F7FFF" stroke-width="2" stroke-linecap="round"/>
<ellipse cx="48" cy="58" rx="12" ry="8" stroke="#5F7FFF" stroke-width="2"/>
<path d="M64 62C67.5085 61.2306 70 59.2821 70 57C70 54.7179 67.5085 52.7694 64 52" stroke="#5F7FFF" stroke-width="2" stroke-linecap="round"/>
<path d="M32 62C28.4915 61.2306 26 59.2821 26 57C26 54.7179 28.4915 52.7694 32 52" stroke="#5F7FFF" stroke-width="2" stroke-linecap="round"/>
</svg>
