<svg width="160" height="160" viewBox="0 0 160 160" fill="none" xmlns="http://www.w3.org/2000/svg">
<path d="M80.0013 146.667C116.82 146.667 146.668 116.819 146.668 80.0002C146.668 43.1812 116.82 13.3335 80.0013 13.3335C43.1823 13.3335 13.3346 43.1812 13.3346 80.0002C13.3346 90.6647 15.8387 100.744 20.291 109.683C21.4742 112.059 21.868 114.774 21.1821 117.338L17.2114 132.178C15.4877 138.62 21.3814 144.514 27.8236 142.79L42.6639 138.819C45.2275 138.133 47.9427 138.527 50.3182 139.71C59.2571 144.163 69.3368 146.667 80.0013 146.667Z" stroke="white" stroke-width="5"/>
<path d="M53.332 70H106.665" stroke="white" stroke-width="5" stroke-linecap="round"/>
<path d="M53.332 93.3335H89.9987" stroke="white" stroke-width="5" stroke-linecap="round"/>
</svg>
