<svg width="140" height="126" viewBox="0 0 140 126" fill="none" xmlns="http://www.w3.org/2000/svg">
<path d="M56.6654 109.667C56.6654 106.13 55.2606 102.739 52.7601 100.239C50.2596 97.7381 46.8683 96.3333 43.332 96.3333C39.7958 96.3333 36.4044 97.7381 33.9039 100.239C31.4035 102.739 29.9987 106.13 29.9987 109.667C29.9987 113.203 31.4035 116.594 33.9039 119.095C36.4044 121.595 39.7958 123 43.332 123C46.8683 123 50.2596 121.595 52.7601 119.095C55.2606 116.594 56.6654 113.203 56.6654 109.667ZM56.6654 109.667H83.332M83.332 16.3333C83.332 12.7971 84.7368 9.40573 87.2373 6.90524C89.7378 4.40476 93.1291 3 96.6654 3C100.202 3 103.593 4.40476 106.093 6.90524C108.594 9.40573 109.999 12.7971 109.999 16.3333C109.999 19.8696 108.594 23.2609 106.093 25.7614C103.593 28.2619 100.202 29.6667 96.6654 29.6667C93.1291 29.6667 89.7378 28.2619 87.2373 25.7614C84.7368 23.2609 83.332 19.8696 83.332 16.3333ZM83.332 16.3333H56.6654M56.6654 16.3333C56.6654 12.7971 55.2606 9.40573 52.7601 6.90524C50.2596 4.40476 46.8683 3 43.332 3C39.7958 3 36.4044 4.40476 33.9039 6.90524C31.4035 9.40573 29.9987 12.7971 29.9987 16.3333C29.9987 19.8696 31.4035 23.2609 33.9039 25.7614C36.4044 28.2619 39.7958 29.6667 43.332 29.6667C46.8683 29.6667 50.2596 28.2619 52.7601 25.7614C55.2606 23.2609 56.6654 19.8696 56.6654 16.3333ZM29.9987 63C29.9987 59.4638 28.5939 56.0724 26.0935 53.5719C23.593 51.0714 20.2016 49.6667 16.6654 49.6667C13.1291 49.6667 9.73776 51.0714 7.23727 53.5719C4.73679 56.0724 3.33203 59.4638 3.33203 63C3.33203 66.5362 4.73679 69.9276 7.23727 72.4281C9.73776 74.9286 13.1291 76.3333 16.6654 76.3333C20.2016 76.3333 23.593 74.9286 26.0935 72.4281C28.5939 69.9276 29.9987 66.5362 29.9987 63ZM29.9987 63H56.6654M83.332 109.667C83.332 106.13 84.7368 102.739 87.2373 100.239C89.7378 97.7381 93.1291 96.3333 96.6654 96.3333C100.202 96.3333 103.593 97.7381 106.093 100.239C108.594 102.739 109.999 106.13 109.999 109.667C109.999 113.203 108.594 116.594 106.093 119.095C103.593 121.595 100.202 123 96.6654 123C93.1291 123 89.7378 121.595 87.2373 119.095C84.7368 116.594 83.332 113.203 83.332 109.667ZM83.332 63C83.332 59.4638 81.9273 56.0724 79.4268 53.5719C76.9263 51.0714 73.5349 49.6667 69.9987 49.6667C66.4625 49.6667 63.0711 51.0714 60.5706 53.5719C58.0701 56.0724 56.6654 59.4638 56.6654 63M83.332 63C83.332 66.5362 81.9273 69.9276 79.4268 72.4281C76.9263 74.9286 73.5349 76.3333 69.9987 76.3333C66.4625 76.3333 63.0711 74.9286 60.5706 72.4281C58.0701 69.9276 56.6654 66.5362 56.6654 63M83.332 63H109.999M109.999 63C109.999 59.4638 111.403 56.0724 113.904 53.5719C116.404 51.0714 119.796 49.6667 123.332 49.6667C126.868 49.6667 130.26 51.0714 132.76 53.5719C135.261 56.0724 136.665 59.4638 136.665 63C136.665 66.5362 135.261 69.9276 132.76 72.4281C130.26 74.9286 126.868 76.3333 123.332 76.3333C119.796 76.3333 116.404 74.9286 113.904 72.4281C111.403 69.9276 109.999 66.5362 109.999 63ZM89.9987 29.6667L76.6654 49.6667M49.9987 29.6667L63.332 49.6667M63.332 76.3333L49.9987 96.3333M76.6654 76.3333L89.9987 96.3333M103.332 96.3333L116.665 76.3333M116.665 49.6667L103.332 29.6667M36.6654 29.6667L23.332 49.6667M23.332 76.3333L36.6654 96.3333" stroke="white" stroke-width="5" stroke-linecap="round" stroke-linejoin="round"/>
</svg>
