<svg width="160" height="160" viewBox="0 0 160 160" fill="none" xmlns="http://www.w3.org/2000/svg">
<path d="M64.9901 16.6278L121.062 48.7993M64.9901 16.6278L17.6716 98.3033C8.73826 113.723 14.0397 133.44 29.5126 142.342C44.9855 151.245 64.7707 145.962 73.704 130.542L83.6725 113.336M64.9901 16.6278L59.4175 13.3335M121.062 48.7993L106.012 74.7755M121.062 48.7993L126.665 52.0251M106.012 74.7755L94.5896 94.492M106.012 74.7755L88.9587 64.9636M94.5896 94.492L83.6725 113.336M94.5896 94.492L66.5699 78.3706M83.6725 113.336L66.2546 103.314" stroke="white" stroke-width="5" stroke-linecap="round"/>
<path d="M146.667 99.444C146.667 107.115 140.697 113.333 133.333 113.333C125.97 113.333 120 107.115 120 99.444C120 94.6446 125.22 88.2388 129.127 84.1158C131.441 81.675 135.226 81.675 137.539 84.1158C141.447 88.2388 146.667 94.6446 146.667 99.444Z" stroke="white" stroke-width="5"/>
</svg>
