<svg width="96" height="96" viewBox="0 0 96 96" fill="none" xmlns="http://www.w3.org/2000/svg">
<rect width="96" height="96" rx="15" fill="#070514"/>
<path d="M30 44.8333C30 38.4381 30 35.2406 30.755 34.1648C31.5101 33.0891 34.5166 32.0599 40.5298 30.0016L41.6754 29.6094C44.81 28.5365 46.3772 28 48 28C49.6228 28 51.19 28.5365 54.3246 29.6094L55.4702 30.0016C61.4834 32.0599 64.4899 33.0891 65.245 34.1648C66 35.2406 66 38.4381 66 44.8333C66 45.7993 66 46.8468 66 47.9827C66 59.2589 57.5221 64.731 52.2029 67.0546C50.76 67.6849 50.0385 68 48 68C45.9615 68 45.24 67.6848 43.7971 67.0545C38.4779 64.731 30 59.2589 30 47.9827C30 46.8468 30 45.7993 30 44.8333Z" stroke="#00BBFF" stroke-width="2"/>
<path d="M48 51.0005V57.0005M50.9995 50.1958C48.1302 51.8524 44.4613 50.8693 42.8047 48C41.1481 45.1307 42.1312 41.4618 45.0005 39.8052C46.1701 39.13 47.4725 38.8933 48.7174 39.0442C50.5265 39.2635 52.214 40.3013 53.1953 42.001C54.1766 43.7007 54.2316 45.681 53.517 47.3574C53.0252 48.5109 52.1691 49.5205 50.9995 50.1958Z" stroke="#00BBFF" stroke-width="2" stroke-linecap="round"/>
</svg>
