<svg width="160" height="160" viewBox="0 0 160 160" fill="none" xmlns="http://www.w3.org/2000/svg">
<path d="M120.001 66.6665L86.668 66.6665" stroke="white" stroke-width="5" stroke-linecap="round"/>
<path d="M66.668 20H110.001C113.097 20 114.646 20 115.945 20.1711C124.92 21.3526 131.982 28.4148 133.164 37.3895C133.335 38.6891 133.335 40.2372 133.335 43.3333" stroke="white" stroke-width="5"/>
<path d="M13.332 46.3318C13.332 40.4483 13.332 37.5065 13.7944 35.0561C15.8296 24.2689 24.2674 15.8311 35.0546 13.7958C37.505 13.3335 40.4468 13.3335 46.3303 13.3335C48.9082 13.3335 50.1971 13.3335 51.4358 13.4493C56.7764 13.9487 61.8422 16.0471 65.9716 19.4703C66.9295 20.2643 67.8409 21.1757 69.6637 22.9985L73.332 26.6668C78.7706 32.1054 81.4898 34.8246 84.7461 36.6363C86.535 37.6316 88.4324 38.4175 90.401 38.9787C93.9847 40.0002 97.8303 40.0002 105.522 40.0002H108.013C125.562 40.0002 134.336 40.0002 140.04 45.1299C140.564 45.6018 141.064 46.1011 141.536 46.6257C146.665 52.3292 146.665 61.1037 146.665 78.6529V93.3335C146.665 118.475 146.665 131.046 138.855 138.856C131.044 146.667 118.474 146.667 93.332 146.667H66.6654C41.5238 146.667 28.953 146.667 21.1425 138.856C13.332 131.046 13.332 118.475 13.332 93.3335V46.3318Z" stroke="white" stroke-width="5"/>
</svg>
