<svg width="48" height="48" viewBox="0 0 48 48" fill="none" xmlns="http://www.w3.org/2000/svg">
<circle cx="24" cy="24" r="6" stroke="#00BBFF" stroke-width="2"/>
<path d="M27.5278 4.30448C26.7927 4 25.8608 4 23.997 4C22.1333 4 21.2014 4 20.4663 4.30448C19.4862 4.71046 18.7075 5.48915 18.3015 6.46927C18.1162 6.91668 18.0437 7.437 18.0153 8.19598C17.9736 9.31136 17.4016 10.3438 16.435 10.9019C15.4683 11.4599 14.2882 11.4391 13.3015 10.9175C12.63 10.5626 12.1431 10.3652 11.6629 10.302C10.6112 10.1636 9.54743 10.4486 8.70579 11.0944C8.07456 11.5788 7.60862 12.3858 6.67673 13.9999C5.74485 15.6139 5.27891 16.421 5.17506 17.2098C5.03659 18.2616 5.32161 19.3253 5.96742 20.167C6.2622 20.5511 6.67648 20.8741 7.31944 21.278C8.26467 21.872 8.87285 22.8837 8.87279 24C8.87273 25.1163 8.26457 26.1279 7.31944 26.7217C6.67636 27.1257 6.26203 27.4487 5.96723 27.8329C5.32141 28.6745 5.03639 29.7383 5.17486 30.7901C5.27871 31.5789 5.74466 32.3859 6.67654 34C7.60842 35.6141 8.07436 36.4211 8.70559 36.9055C9.54724 37.5513 10.611 37.8363 11.6627 37.6978C12.1429 37.6346 12.6297 37.4373 13.3011 37.0824C14.288 36.5608 15.4682 36.54 16.4349 37.0981C17.4015 37.6562 17.9736 38.6887 18.0153 39.8041C18.0437 40.563 18.1162 41.0833 18.3015 41.5307C18.7075 42.5108 19.4862 43.2895 20.4663 43.6955C21.2014 44 22.1333 44 23.997 44C25.8608 44 26.7927 44 27.5278 43.6955C28.5079 43.2895 29.2866 42.5108 29.6926 41.5307C29.8779 41.0833 29.9504 40.563 29.9788 39.804C30.0205 38.6886 30.5925 37.6562 31.559 37.0981C32.5257 36.5399 33.7059 36.5607 34.6928 37.0823C35.3642 37.4372 35.8511 37.6345 36.3312 37.6977C37.3829 37.8362 38.4467 37.5511 39.2883 36.9053C39.9195 36.421 40.3855 35.6139 41.3174 33.9999C42.2492 32.3858 42.7152 31.5788 42.819 30.7899C42.9575 29.7381 42.6725 28.6744 42.0267 27.8328C41.7319 27.4486 41.3176 27.1256 40.6745 26.7216C39.7294 26.1277 39.1212 25.1161 39.1213 23.9998C39.1214 22.8837 39.7295 21.8722 40.6745 21.2784C41.3177 20.8743 41.732 20.5513 42.0269 20.1671C42.6727 19.3255 42.9577 18.2617 42.8192 17.2099C42.7154 16.4211 42.2494 15.6141 41.3176 14C40.3857 12.3859 39.9197 11.5789 39.2885 11.0945C38.4469 10.4487 37.3831 10.1637 36.3313 10.3022C35.8512 10.3654 35.3644 10.5627 34.6929 10.9176C33.7061 11.4392 32.5259 11.46 31.5592 10.9019C30.5925 10.3438 30.0205 9.31132 29.9788 8.19588C29.9504 7.43695 29.8779 6.91666 29.6926 6.46927C29.2866 5.48915 28.5079 4.71046 27.5278 4.30448Z" stroke="#00BBFF" stroke-width="2"/>
</svg>
