<svg width="48" height="48" viewBox="0 0 48 48" fill="none" xmlns="http://www.w3.org/2000/svg">
<path d="M10 17.0293C10 9.8334 16.268 4 24 4C31.732 4 38 9.8334 38 17.0293C38 24.1688 33.5317 32.4999 26.5601 35.4791C24.935 36.1736 23.065 36.1736 21.4399 35.4791C14.4683 32.4999 10 24.1688 10 17.0293Z" stroke="white" stroke-width="2"/>
<path d="M28 18C28 20.2091 26.2091 22 24 22C21.7909 22 20 20.2091 20 18C20 15.7909 21.7909 14 24 14C26.2091 14 28 15.7909 28 18Z" stroke="white" stroke-width="2"/>
<path d="M41.9211 31C43.2518 32.205 44 33.5632 44 35C44 39.9706 35.0457 44 24 44C12.9543 44 4 39.9706 4 35C4 33.5632 4.74824 32.205 6.07893 31" stroke="white" stroke-width="2" stroke-linecap="round"/>
</svg>
