<svg width="48" height="48" viewBox="0 0 48 48" fill="none" xmlns="http://www.w3.org/2000/svg">
<path d="M4 24C4 16.4575 4 12.6863 6.34315 10.3431C8.68629 8 12.4575 8 20 8H28C35.5425 8 39.3137 8 41.6569 10.3431C44 12.6863 44 16.4575 44 24C44 31.5425 44 35.3137 41.6569 37.6569C39.3137 40 35.5425 40 28 40H20C12.4575 40 8.68629 40 6.34315 37.6569C4 35.3137 4 31.5425 4 24Z" stroke="white" stroke-width="2"/>
<path d="M12 16L16.3178 19.5982C19.9911 22.6592 21.8277 24.1898 24 24.1898C26.1723 24.1898 28.0089 22.6592 31.6822 19.5982L36 16" stroke="white" stroke-width="2" stroke-linecap="round"/>
</svg>
