<svg width="48" height="48" viewBox="0 0 48 48" fill="none" xmlns="http://www.w3.org/2000/svg">
<path d="M36 16C36 22.6274 30.6274 28 24 28C17.3726 28 12 22.6274 12 16C12 9.37258 17.3726 4 24 4C30.6274 4 36 9.37258 36 16Z" stroke="#00BBFF" stroke-width="2"/>
<path d="M13 20.3789C7.82432 21.711 4 26.4093 4 32.0009C4 38.6283 9.37258 44.0009 16 44.0009C22.6274 44.0009 28 38.6283 28 32.0009C28 30.4915 27.7213 29.0472 27.2126 27.7166" stroke="#00BBFF" stroke-width="2"/>
<path d="M24 40.9453C26.123 42.8454 28.9266 44.0009 32 44.0009C38.6274 44.0009 44 38.6283 44 32.0009C44 26.4093 40.1757 21.711 35 20.3789" stroke="#00BBFF" stroke-width="2"/>
</svg>
