<svg width="48" height="48" viewBox="0 0 48 48" fill="none" xmlns="http://www.w3.org/2000/svg">
<path d="M20.0752 10.6323L21.3732 12.9582C22.5446 15.0572 22.0744 17.8106 20.2294 19.6556C20.2294 19.6556 20.2294 19.6556 20.2294 19.6556C20.2292 19.6558 17.9918 21.8937 22.049 25.951C26.105 30.0069 28.3428 27.7722 28.3444 27.7706C28.3444 27.7705 28.3444 27.7706 28.3445 27.7705C30.1894 25.9256 32.9429 25.4554 35.0418 26.6268L37.3677 27.9248C40.5371 29.6936 40.9114 34.1385 38.1255 36.9244C36.4515 38.5984 34.4008 39.901 32.1338 39.9869C28.3176 40.1316 21.8366 39.1657 15.3354 32.6646C8.83426 26.1634 7.86843 19.6824 8.0131 15.8662C8.09904 13.5992 9.40161 11.5485 11.0756 9.87446C13.8615 7.08856 18.3063 7.46287 20.0752 10.6323Z" stroke="white" stroke-width="2" stroke-linecap="round"/>
</svg>
