<svg width="160" height="160" viewBox="0 0 160 160" fill="none" xmlns="http://www.w3.org/2000/svg">
<path d="M24.5308 75.5556H22.0308H24.5308ZM24.5308 86.6667L22.77 88.4414C23.7447 89.4084 25.3169 89.4084 26.2916 88.4414L24.5308 86.6667ZM37.4903 77.3303C38.4705 76.3578 38.4767 74.7749 37.5042 73.7948C36.5317 72.8146 34.9488 72.8084 33.9687 73.7809L37.4903 77.3303ZM15.0928 73.7809C14.1127 72.8084 12.5298 72.8146 11.5573 73.7948C10.5849 74.7749 10.5911 76.3578 11.5712 77.3303L15.0928 73.7809ZM126.232 47.976C126.955 49.1522 128.495 49.5195 129.671 48.7964C130.847 48.0733 131.215 46.5336 130.492 45.3574L126.232 47.976ZM80.5245 17.5C48.2378 17.5 22.0308 43.4739 22.0308 75.5556H27.0308C27.0308 46.2723 50.9622 22.5 80.5245 22.5V17.5ZM22.0308 75.5556L22.0308 86.6667H27.0308L27.0308 75.5555L22.0308 75.5556ZM26.2916 88.4414L37.4903 77.3303L33.9687 73.7809L22.77 84.892L26.2916 88.4414ZM26.2916 84.892L15.0928 73.7809L11.5712 77.3303L22.77 88.4414L26.2916 84.892ZM130.492 45.3574C120.222 28.6521 101.683 17.5 80.5245 17.5V22.5C99.8862 22.5 116.84 32.6994 126.232 47.976L130.492 45.3574Z" fill="white"/>
<path d="M135.427 73.3335L137.185 71.5554C136.211 70.5928 134.644 70.5928 133.67 71.5554L135.427 73.3335ZM122.428 82.6666C121.446 83.6371 121.437 85.22 122.408 86.202C123.378 87.184 124.961 87.1933 125.943 86.2227L122.428 82.6666ZM144.911 86.2227C145.893 87.1933 147.476 87.184 148.447 86.202C149.417 85.22 149.408 83.6371 148.426 82.6665L144.911 86.2227ZM33.3267 112.021C32.6016 110.846 31.0613 110.481 29.8863 111.206C28.7113 111.931 28.3466 113.471 29.0717 114.646L33.3267 112.021ZM79.2195 142.5C111.615 142.5 137.927 116.535 137.927 84.4446H132.927C132.927 113.719 108.909 137.5 79.2195 137.5V142.5ZM137.927 84.4446V73.3335H132.927V84.4446H137.927ZM133.67 71.5554L122.428 82.6666L125.943 86.2227L137.185 75.1115L133.67 71.5554ZM133.67 75.1115L144.911 86.2227L148.426 82.6665L137.185 71.5554L133.67 75.1115ZM29.0717 114.646C39.3813 131.352 57.9885 142.5 79.2195 142.5V137.5C59.7759 137.5 42.7539 127.297 33.3267 112.021L29.0717 114.646Z" fill="white"/>
</svg>
