<svg width="96" height="96" viewBox="0 0 96 96" fill="none" xmlns="http://www.w3.org/2000/svg">
<rect width="96" height="96" rx="15" fill="#070514"/>
<path d="M47.6951 48.3049L48.0925 48.4417C54.6104 50.6855 62.4602 48.5398 68 43M47.6951 48.3049L46.5804 47.9211C40.497 45.8268 33.1705 47.8295 28 53M47.6951 48.3049L47.5583 47.9075C45.3145 41.3896 47.4602 33.5398 53 28M47.6951 48.3049L48.0789 49.4196C50.1732 55.503 48.1705 62.8295 43 68" stroke="#00BBFF" stroke-width="2" stroke-linecap="round"/>
<path d="M37.5312 47.6875L47.6882 57.8444" stroke="#00BBFF" stroke-width="2" stroke-linecap="round"/>
<path d="M47.6875 37.5293L57.8444 47.6862" stroke="#00BBFF" stroke-width="2" stroke-linecap="round"/>
<path d="M32 50L39 57" stroke="#00BBFF" stroke-width="2" stroke-linecap="round"/>
<path d="M63.5547 45.7812L56.5547 38.7812" stroke="#00BBFF" stroke-width="2" stroke-linecap="round"/>
<path d="M42.6094 60.3828L45.7834 63.5569" stroke="#00BBFF" stroke-width="2" stroke-linecap="round"/>
<path d="M53.1719 35.1738L49.9978 31.9998" stroke="#00BBFF" stroke-width="2" stroke-linecap="round"/>
</svg>
